<?xml version="1.0" encoding="UTF-8" standalone="no"?>
<!DOCTYPE svg PUBLIC "-//W3C//DTD SVG 1.1//EN"
 "http://www.w3.org/Graphics/SVG/1.1/DTD/svg11.dtd">
<!-- Generated by graphviz version 2.38.0 (20140413.2041)
 -->
<!-- Title: d1e3 Pages: 1 -->
<svg width="829pt" height="291pt"
 viewBox="0.00 0.00 829.00 291.00" xmlns="http://www.w3.org/2000/svg" xmlns:xlink="http://www.w3.org/1999/xlink">
<g id="graph0" class="graph" transform="scale(1 1) rotate(0) translate(4 287)">
<title>d1e3</title>
<polygon fill="white" stroke="none" points="-4,4 -4,-287 825,-287 825,4 -4,4"/>
<text text-anchor="middle" x="410.5" y="-7.8" font-family="Times,serif" font-size="14.00">Powered by http://rhizomik.net</text>
<!-- http://www.ontogrid.net/StickyNote#event4 -->
<g id="node1" class="node"><title>http://www.ontogrid.net/StickyNote#event4</title>
<g id="a_node1"><a xlink:href="http://www.ontogrid.net/StickyNote#event4" xlink:title="http://www.ontogrid.net/StickyNote#event4">
<polygon fill="none" stroke="black" points="324,-79 0,-79 0,-60 324,-60 324,-79"/>
<text text-anchor="middle" x="162" y="-67" font-family="Times,serif" font-size="10.00" fill="blue">http://www.ontogrid.net/StickyNote#event4</text>
</a>
</g>
</g>
<!-- &quot;2006&#45;05&#45;16&quot; -->
<g id="node2" class="node"><title>&quot;2006&#45;05&#45;16&quot;</title>
<text text-anchor="middle" x="621.5" y="-80" font-family="Times,serif" font-size="10.00">&quot;2006&#45;05&#45;16&quot;^^http://www.w3.org/2001/XMLSchema#date</text>
</g>
<!-- http://www.ontogrid.net/StickyNote#event4&#45;&gt;&quot;2006&#45;05&#45;16&quot; -->
<g id="edge1" class="edge"><title>http://www.ontogrid.net/StickyNote#event4&#45;&gt;&quot;2006&#45;05&#45;16&quot;</title>
<path fill="none" stroke="blue" d="M324.297,-74.0833C352.488,-74.8844 382.179,-75.7281 411.438,-76.5594"/>
<polygon fill="blue" stroke="blue" points="411.671,-80.0674 421.766,-76.8529 411.87,-73.0702 411.671,-80.0674"/>
<text text-anchor="middle" x="373" y="-79.5" font-family="Times,serif" font-size="10.00">:eventDate</text>
</g>
<!-- http://www.ontogrid.net/StickyNote#OscarCorcho -->
<g id="node3" class="node"><title>http://www.ontogrid.net/StickyNote#OscarCorcho</title>
<g id="a_node3"><a xlink:href="http://www.ontogrid.net/StickyNote#OscarCorcho" xlink:title="http://www.ontogrid.net/StickyNote#OscarCorcho">
<polygon fill="none" stroke="black" points="802.5,-42 440.5,-42 440.5,-23 802.5,-23 802.5,-42"/>
<text text-anchor="middle" x="621.5" y="-30" font-family="Times,serif" font-size="10.00" fill="blue">http://www.ontogrid.net/StickyNote#OscarCorcho</text>
</a>
</g>
</g>
<!-- http://www.ontogrid.net/StickyNote#event4&#45;&gt;http://www.ontogrid.net/StickyNote#OscarCorcho -->
<g id="edge2" class="edge"><title>http://www.ontogrid.net/StickyNote#event4&#45;&gt;http://www.ontogrid.net/StickyNote#OscarCorcho</title>
<path fill="none" stroke="blue" d="M280.52,-59.9956C345.491,-54.7412 426.284,-48.2071 492.806,-42.8271"/>
<polygon fill="blue" stroke="blue" points="493.249,-46.3029 502.934,-42.008 492.685,-39.3256 493.249,-46.3029"/>
<text text-anchor="middle" x="373" y="-58.5" font-family="Times,serif" font-size="10.00">:involves</text>
</g>
<!-- http://www.ontogrid.net/StickyNote#event3 -->
<g id="node4" class="node"><title>http://www.ontogrid.net/StickyNote#event3</title>
<g id="a_node4"><a xlink:href="http://www.ontogrid.net/StickyNote#event3" xlink:title="http://www.ontogrid.net/StickyNote#event3">
<polygon fill="none" stroke="black" points="324,-245 0,-245 0,-226 324,-226 324,-245"/>
<text text-anchor="middle" x="162" y="-233" font-family="Times,serif" font-size="10.00" fill="blue">http://www.ontogrid.net/StickyNote#event3</text>
</a>
</g>
</g>
<!-- &quot;2006&#45;05&#45;15&quot; -->
<g id="node5" class="node"><title>&quot;2006&#45;05&#45;15&quot;</title>
<text text-anchor="middle" x="621.5" y="-148" font-family="Times,serif" font-size="10.00">&quot;2006&#45;05&#45;15&quot;^^http://www.w3.org/2001/XMLSchema#date</text>
</g>
<!-- http://www.ontogrid.net/StickyNote#event3&#45;&gt;&quot;2006&#45;05&#45;15&quot; -->
<g id="edge3" class="edge"><title>http://www.ontogrid.net/StickyNote#event3&#45;&gt;&quot;2006&#45;05&#45;15&quot;</title>
<path fill="none" stroke="blue" d="M214.149,-225.997C286.213,-212.608 419.342,-187.874 513.554,-170.37"/>
<polygon fill="blue" stroke="blue" points="514.214,-173.807 523.406,-168.539 512.935,-166.925 514.214,-173.807"/>
<text text-anchor="middle" x="373" y="-206.5" font-family="Times,serif" font-size="10.00">:eventDate</text>
</g>
<!-- http://www.ontogrid.net/StickyNote#CaroleGoble -->
<g id="node6" class="node"><title>http://www.ontogrid.net/StickyNote#CaroleGoble</title>
<g id="a_node6"><a xlink:href="http://www.ontogrid.net/StickyNote#CaroleGoble" xlink:title="http://www.ontogrid.net/StickyNote#CaroleGoble">
<polygon fill="none" stroke="black" points="802.5,-230 440.5,-230 440.5,-211 802.5,-211 802.5,-230"/>
<text text-anchor="middle" x="621.5" y="-218" font-family="Times,serif" font-size="10.00" fill="blue">http://www.ontogrid.net/StickyNote#CaroleGoble</text>
</a>
</g>
</g>
<!-- http://www.ontogrid.net/StickyNote#event3&#45;&gt;http://www.ontogrid.net/StickyNote#CaroleGoble -->
<g id="edge4" class="edge"><title>http://www.ontogrid.net/StickyNote#event3&#45;&gt;http://www.ontogrid.net/StickyNote#CaroleGoble</title>
<path fill="none" stroke="blue" d="M324.297,-230.212C358.483,-229.091 394.875,-227.898 430.027,-226.745"/>
<polygon fill="blue" stroke="blue" points="430.517,-230.231 440.397,-226.405 430.288,-223.235 430.517,-230.231"/>
<text text-anchor="middle" x="373" y="-233.5" font-family="Times,serif" font-size="10.00">:involves</text>
</g>
<!-- http://www.ontogrid.net/StickyNote#PinarAlper -->
<g id="node7" class="node"><title>http://www.ontogrid.net/StickyNote#PinarAlper</title>
<g id="a_node7"><a xlink:href="http://www.ontogrid.net/StickyNote#PinarAlper" xlink:title="http://www.ontogrid.net/StickyNote#PinarAlper">
<polygon fill="none" stroke="black" points="798.5,-283 444.5,-283 444.5,-264 798.5,-264 798.5,-283"/>
<text text-anchor="middle" x="621.5" y="-271" font-family="Times,serif" font-size="10.00" fill="blue">http://www.ontogrid.net/StickyNote#PinarAlper</text>
</a>
</g>
</g>
<!-- http://www.ontogrid.net/StickyNote#event3&#45;&gt;http://www.ontogrid.net/StickyNote#PinarAlper -->
<g id="edge5" class="edge"><title>http://www.ontogrid.net/StickyNote#event3&#45;&gt;http://www.ontogrid.net/StickyNote#PinarAlper</title>
<path fill="none" stroke="blue" d="M277.561,-245.015C343.898,-250.525 427.467,-257.467 495.5,-263.118"/>
<polygon fill="blue" stroke="blue" points="495.595,-266.637 505.85,-263.977 496.175,-259.661 495.595,-266.637"/>
<text text-anchor="middle" x="373" y="-259.5" font-family="Times,serif" font-size="10.00">:involves</text>
</g>
<!-- http://www.ontogrid.net/StickyNote#event5 -->
<g id="node8" class="node"><title>http://www.ontogrid.net/StickyNote#event5</title>
<g id="a_node8"><a xlink:href="http://www.ontogrid.net/StickyNote#event5" xlink:title="http://www.ontogrid.net/StickyNote#event5">
<polygon fill="none" stroke="black" points="324,-144 0,-144 0,-125 324,-125 324,-144"/>
<text text-anchor="middle" x="162" y="-132" font-family="Times,serif" font-size="10.00" fill="blue">http://www.ontogrid.net/StickyNote#event5</text>
</a>
</g>
</g>
<!-- http://www.ontogrid.net/StickyNote#event5&#45;&gt;&quot;2006&#45;05&#45;15&quot; -->
<g id="edge6" class="edge"><title>http://www.ontogrid.net/StickyNote#event5&#45;&gt;&quot;2006&#45;05&#45;15&quot;</title>
<path fill="none" stroke="blue" d="M272.577,-124.975C293.295,-123.526 314.801,-122.262 335,-121.5 368.754,-120.226 377.302,-119.179 411,-121.5 440.245,-123.515 471.625,-127.093 500.964,-131.064"/>
<polygon fill="blue" stroke="blue" points="500.865,-134.584 511.25,-132.483 501.822,-127.649 500.865,-134.584"/>
<text text-anchor="middle" x="373" y="-124.5" font-family="Times,serif" font-size="10.00">:eventDate</text>
</g>
<!-- http://www.ontogrid.net/StickyNote#event5&#45;&gt;http://www.ontogrid.net/StickyNote#CaroleGoble -->
<g id="edge7" class="edge"><title>http://www.ontogrid.net/StickyNote#event5&#45;&gt;http://www.ontogrid.net/StickyNote#CaroleGoble</title>
<path fill="none" stroke="blue" d="M259.742,-144.025C306.153,-150.126 362.153,-159.749 411,-174.5 416.141,-176.052 416.894,-177.835 422,-179.5 462.232,-192.617 508.467,-202.457 546.188,-209.206"/>
<polygon fill="blue" stroke="blue" points="545.632,-212.661 556.086,-210.941 546.841,-205.766 545.632,-212.661"/>
<text text-anchor="middle" x="373" y="-178.5" font-family="Times,serif" font-size="10.00">:involves</text>
</g>
</g>
</svg>
